<svg width="547" height="752" viewBox="0 0 547 752" fill="none" xmlns="http://www.w3.org/2000/svg">
<path d="M90.5867 715.943C89.9561 716.076 90.0534 717.156 90.7627 716.729C91.4267 716.609 91.2774 715.503 90.5867 715.943ZM521.528 697.476C521.547 699.409 521.931 701.342 522.88 703.036C523.708 705.769 525.176 708.422 524.856 711.382C524.553 713.049 526.059 714.329 526.028 715.969C526.036 716.596 525.965 717.223 525.928 717.863C526.753 718.023 527.571 718.223 528.416 718.356C528.728 716.623 528.156 714.983 527.717 713.343C527.388 712.396 527.913 711.529 528.448 710.796C527.368 708.476 526.96 705.823 527.695 703.343C526.992 702.236 526.239 701.103 525.993 699.809C525.648 698.329 525.904 696.796 525.526 695.329C525.16 693.756 525.279 691.956 524.176 690.636C522.833 692.716 522.361 695.183 521.528 697.476ZM468.764 193.903C466.971 196.583 465.396 199.756 462.189 200.996C459.679 201.223 457.067 200.609 454.621 201.423C452.955 202.049 451.139 201.756 449.407 201.649C447.705 200.809 446.063 199.849 444.339 199.076C443.124 198.583 442.741 197.223 442.011 196.263C441.135 196.369 440.164 196.609 439.673 197.423C438.401 199.303 437.008 201.076 435.572 202.836C436.26 204.009 437.085 205.263 437.065 206.689C437 208.796 437.445 211.076 436.283 212.956C435.679 214.369 433.924 215.009 433.697 216.596C433.287 218.023 433.448 219.516 433.437 220.983C433.429 222.556 434.275 223.996 434.232 225.583C434.279 226.583 434.06 227.662 434.675 228.542C436.391 231.489 439.719 233.209 443.052 233.556C444.627 233.663 446.063 234.463 447.652 234.489C448.771 234.209 449.809 233.396 451.028 233.623C453.069 234.063 455.189 234.156 457.263 233.889C458.819 233.383 460.243 232.516 461.88 232.249C460.024 229.583 460.14 226.169 460.343 223.076C460.781 221.169 462.164 219.316 464.124 218.809C466.341 218.156 468.851 219.663 469.505 221.849C470.269 223.636 468.764 225.489 469.612 227.303C471.971 226.329 473.747 224.076 476.379 223.583C477.039 222.103 477.891 220.689 479.176 219.676C480.215 218.889 479.98 217.489 480.057 216.356C480.137 214.143 481.676 212.396 482.396 210.383C480.821 209.103 479.135 207.836 478.164 206.009C476.651 203.782 475.833 201.183 474.273 199.009C472.892 196.916 471.276 194.663 468.764 193.903ZM446.577 186.716C445.9 186.703 445.233 186.676 444.572 186.636C444.584 185.569 445.129 184.396 444.361 183.476C443.961 184.383 443.481 185.249 443.115 186.169C443.028 187.036 443.148 187.916 443.287 188.756C443.481 188.836 443.877 188.956 444.077 189.036C444.143 188.489 444.224 187.956 444.315 187.423C444.856 187.476 445.399 187.529 445.955 187.583C446.135 188.423 446.184 189.289 446.197 190.156C446.324 190.143 446.572 190.143 446.7 190.116C446.733 189.236 446.732 188.329 446.869 187.449C447.513 187.529 448.465 187.169 448.804 187.956C449.319 188.956 449.104 190.169 449.364 191.263C450.181 190.196 450.003 188.743 450.563 187.569C451.08 187.636 451.607 187.716 452.137 187.809C452.153 188.956 452.153 190.116 452.172 191.276C452.503 191.223 453.163 191.129 453.489 191.076C453.585 189.849 453.585 188.623 453.673 187.396C454.433 187.463 455.167 187.689 455.788 188.143C455.757 189.089 455.7 190.023 455.779 190.969C456.484 190.156 456 189.049 455.953 188.089C456.772 187.783 457.809 187.583 458.457 188.356C458.749 189.223 458.711 190.143 458.853 191.023C459.409 190.903 459.973 190.796 460.543 190.676C460.585 189.649 460.604 188.623 460.643 187.609C461.184 187.636 461.729 187.689 462.279 187.756C462.451 188.783 462.44 189.889 463.031 190.783C463.151 189.703 463.123 188.636 463.224 187.556C463.687 188.023 464.041 188.583 464.399 189.143C464.459 188.476 464.329 187.769 464.635 187.156C465.281 186.636 465.987 186.209 466.64 185.703C466.213 184.836 465.612 184.076 464.916 183.396C464.861 184.356 464.836 185.316 464.528 186.223C462.436 185.796 460.585 187.289 458.539 187.089C458.473 185.956 458.473 184.823 458.46 183.689C457.969 183.703 457.481 183.716 456.999 183.729C456.772 184.903 456.596 186.089 456.364 187.263C455.8 187.169 455.244 187.076 454.697 186.983C454.729 185.836 454.779 184.689 454.74 183.543C454.537 183.596 454.115 183.689 453.907 183.729C453.708 184.729 453.831 185.756 453.785 186.769C453.112 186.809 452.372 187.049 451.781 186.623C451.088 185.823 451.423 184.716 451.393 183.783C450.809 183.729 450.229 183.676 449.653 183.623C449.596 184.676 449.596 185.743 449.575 186.809C448.651 186.876 447.729 186.823 446.827 186.636C447.057 185.489 447.307 184.343 447.391 183.183C446.551 184.156 446.708 185.529 446.577 186.716ZM464.617 181.156C465.349 180.263 465.547 179.076 466.145 178.103C466.82 176.983 467.481 175.849 468.133 174.716C465.819 175.916 464.137 178.489 464.617 181.156ZM437.488 174.436C438.195 175.823 439.612 176.863 439.68 178.529C439.923 179.316 439.608 180.543 440.668 180.743C440.687 179.396 440.599 178.023 440.141 176.756C439.549 175.703 438.453 175.089 437.488 174.436ZM453.996 166.663C453.612 167.956 453.427 169.316 453.791 170.636C454.317 172.783 454.039 174.996 454.169 177.169C455.377 177.023 456.503 176.343 457.751 176.796C457.701 175.809 457.667 174.849 457.664 173.876C457.816 171.049 456.161 168.369 453.996 166.663ZM450.379 169.889C449.127 171.649 448.869 173.876 448.724 175.983C449.583 176.649 450.993 176.436 451.913 177.223C453.3 175.956 452.817 173.876 452.893 172.209C452.38 170.369 452.512 168.463 452.272 166.596C451.621 167.689 451.116 168.849 450.379 169.889ZM457.14 158.156C456.611 159.329 455.857 160.609 456.327 161.929C456.872 163.556 457.06 165.423 458.175 166.756C459.82 167.436 461.341 168.663 463.203 168.663C465.181 168.516 467.232 168.116 468.883 166.969C469.953 164.849 469.839 162.316 468.987 160.156C467.117 159.476 465.189 158.983 463.345 158.249C461.38 157.383 459.179 157.849 457.14 158.156ZM443.677 158.223C442.453 158.956 441.083 159.303 439.716 159.623C438.213 159.943 437.468 161.556 437.641 162.969C437.752 164.769 437.684 166.916 438.979 168.316C440.099 169.516 441.692 168.716 443.064 168.583C444.051 168.356 444.987 168.849 445.963 168.929C446.988 168.556 448.056 168.249 449.035 167.743C449.976 166.449 450.009 164.743 450.577 163.289C451.123 161.876 451.039 160.076 450.117 158.849C448.505 156.956 445.76 157.769 443.677 158.223ZM70.0201 142.463C69.3561 142.623 69.2601 143.769 69.9748 143.929C70.5774 143.823 70.6614 142.556 70.0201 142.463ZM297.767 0.889282C298.373 -0.137384 299.971 -0.310697 300.781 0.555969C301.875 1.42264 301.441 2.94258 301.537 4.14258C301.619 5.43591 301.315 6.70257 301.153 7.96924C301.147 9.52924 300.255 10.8893 300.185 12.4493C297.985 17.4227 297.152 22.8626 295.432 28.0092C294.656 29.7692 293.627 31.4225 293.063 33.2759C291.996 38.1559 291.481 43.1426 290.444 48.0359C289.841 50.8759 289.96 53.7826 289.987 56.6759C290.156 59.3826 288.82 61.8626 288.132 64.4226C287.196 66.2759 287.803 68.4226 287.008 70.316C286.124 72.676 285.787 75.1959 285.579 77.6893C285.249 77.5959 284.919 77.4893 284.596 77.3826C284.451 77.9826 284.304 78.5959 284.319 79.2226C284.431 78.6893 284.988 77.5693 285.245 78.6893C284.473 83.9159 283.467 89.076 282.664 94.2893C282.108 96.4093 282.5 98.636 282.012 100.783C281.792 103.556 281.943 106.343 281.92 109.129C281.877 111.169 280.621 112.983 280.713 115.063C280.717 117.383 279.849 119.583 279.759 121.889C278.725 125.609 278.537 129.503 277.523 133.209C277.404 135.716 276.897 138.196 277.036 140.703C277.116 142.223 277.193 143.743 276.881 145.236C275.837 148.756 275.035 152.343 274.26 155.929C272.988 159.289 273.065 162.956 272.085 166.383C271.548 168.249 272.113 170.249 271.483 172.103C270.745 174.223 269.935 176.343 269.655 178.569C269.248 182.236 267.747 185.636 266.544 189.089C265.761 193.236 265.531 197.476 265.012 201.663C265.261 202.623 265.431 203.796 266.245 204.463C270.228 207.209 273.072 211.996 272.569 216.929C272.381 219.409 270.615 221.423 270.557 223.903C269.859 227.903 267.701 231.423 266.587 235.303C266.084 237.156 265.228 238.889 264.505 240.676C267.189 242.289 268.58 245.583 267.812 248.623C271.44 251.849 276.417 253.182 281.183 253.436C283.532 253.769 285.801 254.516 288.14 254.902C291.181 255.209 293.623 257.583 294.983 260.183C295.985 261.103 297.471 261.143 298.707 261.596C300.02 261.916 301.123 262.769 302.379 263.223C304.763 263.329 307.255 263.236 309.489 264.223C310.945 265.089 312.213 266.249 313.244 267.569C314.32 268.996 315.817 270.023 316.977 271.383C317.749 272.316 318.747 273.129 319.957 273.409C322.203 273.916 324.451 274.609 326.419 275.836C328.197 276.289 329.992 276.796 331.531 277.849C333.036 278.689 334.055 280.116 335.367 281.183C337.117 281.849 338.484 283.169 340.171 283.956C343.531 285.863 345.577 289.196 348 292.063C349.041 291.409 349.989 290.596 350.825 289.676C352.623 287.569 355.476 287.049 357.823 285.769C359.864 284.622 362.508 284.916 364.377 283.489C366.192 280.409 369.327 278.609 372.065 276.476C376.069 274.129 380.88 274.609 385.175 273.183C386.145 272.489 386.833 271.409 387.989 270.996C390.941 269.809 394.197 270.009 397.239 269.209C398.693 268.689 400.492 270.516 401.593 269.023C403.168 267.516 404.365 265.596 406.224 264.383C407.668 263.463 409.039 262.409 410.555 261.583C411.431 261.143 411.984 260.316 412.599 259.596C411.151 256.903 410.14 253.476 411.827 250.663C413.148 248.783 415.109 247.289 417.399 246.809C416.992 244.729 416.353 242.703 415.932 240.623C415.8 237.583 415.747 234.462 416.703 231.542C417.475 229.916 417.783 228.103 418.799 226.583C419.721 225.316 419.509 223.676 420.024 222.236C420.601 220.556 420.02 218.703 420.712 217.023C421.215 215.596 421.58 214.116 421.813 212.623C421.215 211.929 420.565 211.263 420.135 210.449C420.069 208.076 420.733 205.489 419.525 203.276C418.135 201.849 415.788 201.956 414.487 200.369C413.508 199.196 412.479 197.636 413.109 196.063C413.696 194.889 414.479 193.783 415.479 192.943C418.649 191.863 421.744 194.196 424.957 193.676C428.38 193.143 431.577 191.609 434.377 189.609C435.672 188.423 437.096 187.116 437.304 185.263C436.416 184.276 434.812 184.423 433.809 183.556C432.427 182.409 431.317 180.943 429.689 180.116C426.479 177.929 422.309 176.623 418.519 178.009C416.941 178.436 415.391 179.476 413.704 178.983C412.632 178.383 411.919 177.329 411.08 176.449C410.028 175.316 409.933 173.676 409.807 172.223C409.625 170.156 411.903 169.076 413.635 168.889C414.66 168.689 416.284 168.983 416.612 167.649C416.999 166.156 417.276 164.623 418.208 163.329C418.964 161.876 421.115 160.849 422.479 162.143C424.677 164.263 425.288 167.409 426.776 169.983C428.145 171.863 430.233 173.076 432.396 173.836C431.643 169.289 431.279 164.649 431.429 160.036C429.017 159.556 427.024 158.009 425.167 156.489C422.481 154.263 420.839 150.876 420.539 147.436C420.369 144.556 422.62 142.476 424.455 140.583C427.267 138.209 431.299 138.036 434.781 138.596C434.839 133.649 434.197 128.743 433.383 123.889C433.041 121.729 431.932 119.796 431.659 117.636C431.268 114.676 429.359 111.956 429.735 108.903C430.669 107.249 432.109 105.956 433.372 104.543C434.336 103.436 435.825 103.076 437.131 102.503C440.975 101.156 444.903 100.063 448.851 99.0359C450.601 98.5559 452.505 98.436 454.291 98.8493C458.085 100.249 462.221 100.329 465.995 101.809C468.441 102.689 471.487 103.596 472.519 106.263C472.899 107.196 473.441 108.049 474.02 108.876C472.98 111.529 471.124 113.796 470.227 116.516C470.031 118.876 470.364 121.276 469.708 123.583C469.229 130.223 468.621 136.889 468.856 143.569C472.703 143.423 476.601 143.636 480.352 144.556C482.456 144.956 483.951 146.996 484.039 149.089C484.572 151.916 483.759 155.023 481.669 157.049C479.972 159.289 477.043 159.849 474.473 160.463C474.62 162.289 474.927 164.089 475.047 165.916C474.785 168.863 474.512 171.809 474.301 174.769C477.937 174.836 481.443 172.649 483.14 169.449C484.741 167.129 485.44 164.089 487.924 162.489C490.473 160.556 494.648 162.396 495.009 165.556C495.189 166.543 494.689 167.463 494.039 168.156C492.787 169.569 491.519 171.116 491.224 173.023C491.752 175.276 494.099 176.876 493.749 179.343C493.976 181.289 492.115 183.223 490.16 182.969C487.736 182.689 485.432 181.609 482.968 181.676C480.995 181.676 479.012 181.636 477.055 181.863C475.529 182.009 474.239 182.916 472.907 183.583C472.101 183.876 472.147 184.809 472.023 185.503C474.604 186.476 475.929 189.023 478.115 190.543C479.5 191.729 481.375 191.996 482.925 192.916C484.523 193.703 486.505 194.409 488.193 193.449C489.837 192.823 491.825 191.663 493.512 192.796C494.679 193.463 496.129 194.556 495.893 196.076C495.312 198.156 494.107 200.063 492.401 201.383C491.343 202.209 490.172 203.596 490.981 204.969C491.784 206.436 491.811 208.076 491.196 209.609C491.945 212.916 489.449 215.636 488.989 218.756C490.164 218.516 491.407 217.983 492.613 218.436C495.083 219.089 496.729 222.063 495.647 224.449C494.963 226.423 492.82 227.089 491.219 228.103C492.503 229.063 493.96 230.063 494.495 231.663C495.815 235.089 491.819 239.129 488.377 237.783C487.169 237.463 486.492 236.236 485.325 235.863C483.505 235.663 481.676 236.023 479.929 236.423C479.009 237.316 478.495 238.623 477.331 239.249C476.279 239.863 475.031 239.876 473.851 239.969C473.272 240.663 472.651 241.343 472.273 242.156C472.181 244.023 471.54 245.796 470.831 247.503C469.716 249.249 467.353 249.209 465.949 250.596C463 253.116 462.359 257.476 459.088 259.702C456.963 261.449 455.317 264.409 452.256 264.476C448.903 264.329 445.487 264.836 442.192 264.076C441.428 263.969 440.713 264.303 440.003 264.503C439.439 267.089 437.627 269.142 436.247 271.342C435.2 274.689 433.227 277.649 431.993 280.929C431.26 283.076 429.796 284.863 428.599 286.756C426.768 289.556 423.864 291.276 421.472 293.516C419.717 295.116 417.375 296.209 416.335 298.449C415.869 301.636 416.864 304.769 416.669 307.956C416.661 315.236 416.669 322.516 416.661 329.796C416.661 332.396 416.625 335.036 417.189 337.583C417.963 338.516 418.964 339.329 419.372 340.516C420.608 342.929 420.213 345.689 420.279 348.289C420.316 351.783 420.185 355.303 420.332 358.783C421.281 362.503 421.76 366.31 422.279 370.104C422.34 378.098 422.239 386.093 422.325 394.088C422.279 396.369 422.919 398.58 423.2 400.83C423.699 403.257 423.443 405.737 423.508 408.202C423.508 418.625 423.5 429.054 423.508 439.474C423.472 441.129 423.676 442.809 423.2 444.423C422.028 448.236 422.552 452.382 421.137 456.142C419.755 460.062 418.737 464.156 418.46 468.302C417.861 470.249 417.013 472.142 416.815 474.196C415.283 479.236 414.575 484.649 411.657 489.156C410.689 491.649 409.233 493.916 407.544 495.996C406.411 497.743 405.176 499.489 403.44 500.702C402.18 501.529 401.172 502.769 399.757 503.342C395.245 504.649 390.515 504.196 385.888 504.263C383.811 504.196 382.012 505.489 379.989 505.729C378.888 505.903 377.685 505.716 376.711 506.369C375.085 507.276 373.081 507.849 371.257 507.183C368.481 506.276 365.652 505.502 362.941 504.409C360.672 503.156 358.871 501.196 357.443 499.063C355.108 496.396 352.369 493.849 351.437 490.316C349.747 487.036 348.656 483.476 346.744 480.302C345.288 477.516 343.46 474.942 341.679 472.342C339.236 469.622 337.771 466.196 337.095 462.636C334.668 457.356 331.109 452.703 327.867 447.929C325.679 445.876 324.197 443.196 321.82 441.342C321.017 440.622 320.281 439.836 319.535 439.061C320.127 441.476 320.223 443.996 321.017 446.356C321.581 448.089 321.739 449.916 322.051 451.716C322.269 453.596 323.932 454.969 323.981 456.902C324.135 459.649 324.435 462.422 325.556 464.942C326.616 468.262 327.719 471.582 329.319 474.676C330.509 478.489 332.045 482.236 334.56 485.396C337.379 484.343 340.845 485.422 342.399 488.036C343.653 489.956 343.457 492.356 343.38 494.542C343.357 496.182 342.312 497.503 341.648 498.929C341.055 501.249 340.631 503.929 342.012 506.076C343.167 507.729 342.828 509.849 343.604 511.663C344.364 513.649 344.893 515.756 346.041 517.556C347.853 520.716 347.804 524.503 349.351 527.729C351.981 530.263 354.224 533.343 355.173 536.929C356.583 540.689 357.508 544.663 359.612 548.116C361.853 551.996 364.484 555.649 366.669 559.569C368.565 563.036 371.257 565.983 373.181 569.449C374.464 571.329 375.393 573.622 377.379 574.902C379.049 576.076 379.895 577.982 381.179 579.502C382.347 581.116 383.825 582.463 385.135 583.956C387.04 585.823 389.781 586.463 391.713 588.316C394.287 589.929 396.044 592.742 396.289 595.769C396.317 597.742 395.872 599.676 395.768 601.649C395.679 603.569 394.667 605.276 394.259 607.129C394.208 608.822 394.391 610.543 394.028 612.223C393.66 613.876 393.955 615.582 393.805 617.249C393.045 621.582 393.967 626.143 392.292 630.329C391.271 632.809 390.795 635.463 389.932 638.009C389.213 640.329 388.991 642.783 388.096 645.063C387.676 647.263 387.385 649.569 386.099 651.489C385.296 652.396 386.46 653.263 386.94 653.996C389.205 656.649 390.872 659.822 393.621 662.036C394.812 662.982 395.529 664.356 396.463 665.502C399.843 666.729 402.361 669.369 405.161 671.502C407.287 672.542 409.427 673.596 411.361 674.969C413.135 676.436 413.761 678.862 413.608 681.102C413.443 684.342 413.849 687.636 415.003 690.689C415.828 692.596 417.305 694.196 417.908 696.209C418.271 697.343 418.645 698.476 419.103 699.596C421.76 700.129 424.013 698.142 426.648 698.369C429.181 698.222 431.575 699.583 433.176 701.476C434.189 703.036 434.957 704.743 435.837 706.396C436.912 707.329 438.395 707.649 439.432 708.649C440.215 709.436 440.705 710.436 441.343 711.329C442.224 710.503 442.78 709.422 443.697 708.649C445.348 706.742 446.159 704.183 445.833 701.663C445.213 701.943 444.62 702.249 444.005 702.516C444.096 701.502 444.212 700.463 444.657 699.543C445.183 698.476 444.853 697.236 444.892 696.102C444.357 696.102 443.832 696.129 443.317 696.156C443.459 695.729 443.605 695.316 443.759 694.902C443.279 695.142 442.807 695.382 442.345 695.636C442.648 694.662 442.937 693.662 442.917 692.636C442.437 692.289 441.951 691.983 441.477 691.676C442.615 689.169 444.104 686.836 444.815 684.156C444.343 684.196 443.869 684.249 443.405 684.302C444.031 683.022 444.224 681.449 445.388 680.516C446.373 679.742 446.733 678.516 447.315 677.449C446.781 677.582 446.255 677.716 445.729 677.849C446.151 676.689 447.015 675.823 447.875 674.996C449.445 673.623 449.157 671.249 450.575 669.756C450.317 669.183 450.064 668.623 449.823 668.049C450.56 667.209 451.607 666.543 451.872 665.396C451.288 665.529 450.713 665.689 450.14 665.863C451.292 663.689 452.091 661.369 452.997 659.102C453.089 658.382 452.841 657.676 452.924 656.969C453.839 655.716 454.56 654.316 455.708 653.263C455.205 653.009 454.697 652.756 454.211 652.516C455.048 651.463 455.676 650.183 456.933 649.556C456.727 649.449 456.311 649.222 456.104 649.102C457.132 647.889 457.671 646.329 459.103 645.463C458.708 645.489 458.323 645.529 457.943 645.569C458.065 644.929 458.036 644.263 457.627 643.729C458.827 642.089 459.697 640.156 461.273 638.809C462.252 637.996 462.712 636.783 462.976 635.583C463.457 635.369 463.937 635.169 464.416 634.969C464.187 634.262 463.945 633.582 463.676 632.902C464.781 632.782 465.737 632.276 466.233 631.236C465.473 631.196 464.716 631.156 463.968 631.129C465.749 630.503 467.047 629.076 468.713 628.223C468.508 628.023 468.088 627.609 467.88 627.409C468.937 627.409 470.015 627.356 471.009 626.943C470.664 626.756 469.961 626.396 469.612 626.209C469.643 626.009 469.7 625.609 469.732 625.409C471.067 624.983 471.483 623.609 471.989 622.463C473.867 622.703 475.348 621.343 476.675 620.223C478.115 619.316 479.732 618.676 481.271 618.009C482.192 616.623 483.869 616.342 485.321 615.769C487.129 614.876 489.331 616.076 491.047 614.823C491.46 613.716 491.169 612.462 491.2 611.316C491.023 609.782 491.745 608.369 491.905 606.876C492.268 604.089 494.503 601.889 494.959 599.169C493.899 597.689 492.713 596.222 492.107 594.502C492.033 592.796 491.473 591.169 491.415 589.489C491.335 588.449 492.095 587.596 492.095 586.609C491.86 585.742 491.388 584.943 491.265 584.049C491 582.569 493.205 582.236 492.987 580.769C492.697 580.009 491.776 579.702 491.473 578.969C490.84 577.289 490.408 575.516 489.736 573.889C487.315 570.983 486.273 567.129 486.265 563.409C486.345 562.142 486.653 560.529 488.105 560.196C490.181 559.329 492.008 561.063 493.791 561.849C495.424 562.463 496.503 563.916 497.94 564.849C499.46 565.796 500.505 567.303 501.891 568.423C502.609 567.983 503.291 567.502 504.049 567.129C505.112 566.942 506.053 567.676 507.024 568.009C507.221 567.476 507.412 566.956 507.601 566.436C508.557 566.449 509.512 566.703 510.472 566.623C511.152 566.063 511.801 565.302 512.781 565.436C513.725 565.582 514.393 564.956 515.104 564.449C516.189 564.663 517.299 565.289 518.424 564.929C520.396 562.516 520.615 558.983 523.244 557.089C525.017 555.943 525.556 553.449 527.615 552.649C528.939 552.036 530.336 552.876 531.249 553.823C532.268 555.289 532.801 557.036 533.181 558.783C533.476 560.196 534.176 561.543 534.145 563.023C534.233 564.316 533.684 565.609 534.053 566.902C534.376 568.662 533.864 570.423 533.089 571.996C532.659 573.236 533.968 573.996 534.442 575.009C535.903 577.022 535.828 579.596 536.224 581.956C536.464 583.103 536.023 584.209 535.428 585.196C535.968 585.729 536.611 586.236 536.902 586.983C537.387 589.529 535.982 592.023 536.607 594.556C536.914 596.649 538.637 598.196 539.021 600.289C540.069 602.956 538.695 606.009 539.9 608.636C541.141 610.236 540.692 612.343 540.637 614.209C541.137 616.556 542.604 618.556 543.948 620.516C544.632 621.756 545.078 623.116 545.674 624.409C545.715 627.223 547.12 629.943 546.399 632.783C546.585 636.569 546.859 640.543 545.385 644.129C545.853 646.089 545.584 648.156 544.685 649.943C544.049 651.143 542.404 651.556 542.198 653.009C540.791 657.956 538.629 662.649 537.448 667.676C537.885 670.449 537.663 673.276 538.192 676.049C538.661 678.223 537.152 680.183 537.414 682.356C537.751 685.263 536.925 688.156 537.455 691.076C538.204 695.276 537.808 699.569 537.305 703.769C537.064 705.902 537.804 707.916 538.633 709.849C538.825 711.876 538.738 713.943 538.968 715.996C540.063 715.796 541.421 715.329 542.267 716.356C543.561 717.783 545.508 718.929 545.684 721.049C546.129 722.542 545.008 724.182 543.453 724.302C540.923 724.689 538.372 724.956 535.828 725.169C534.376 725.396 533.2 724.396 532.057 723.702C531.188 724.369 530.721 725.689 529.509 725.823C526.205 726.383 522.852 726.649 519.531 727.049C517.707 727.289 515.691 726.303 515.268 724.409C512.086 724.716 509.009 725.729 506.057 726.916C503.991 727.262 501.883 727.063 499.801 727.209C497.099 727.369 494.236 726.769 491.708 728.009C490.667 728.489 489.523 728.649 488.393 728.756C485.607 729.023 482.821 729.529 480.017 729.329C478.391 729.129 476.796 728.422 475.141 728.716C471.605 729.196 468.061 729.929 464.479 729.689C461.249 729.716 458.031 730.103 454.799 729.996C453.308 729.983 452.617 728.036 451.065 728.423C447.403 728.663 443.716 727.836 440.083 728.489C438.091 728.529 436.175 727.823 434.193 727.743C432.239 727.756 430.353 726.649 428.484 727.663C428.476 726.903 428.515 726.156 428.599 725.409C424.936 726.783 421.913 729.502 418.12 730.569C414.967 731.822 411.531 732.103 408.175 732.009C402.664 731.903 397.131 732.276 391.64 731.623C388.245 730.903 384.755 731.249 381.307 731.209C378.943 731.169 377.029 732.689 375.025 733.716C372.971 735.009 370.62 735.876 368.82 737.543C366.667 739.156 364.884 741.209 362.78 742.876C360.331 744.156 358.168 745.969 355.561 746.969C353.396 747.596 351.121 747.169 348.909 747.316C346.784 747.476 344.732 746.809 342.779 746.063C341.492 745.543 340.416 744.569 339.053 744.249C337.775 743.902 336.547 743.276 335.692 742.236C335.041 741.409 334.068 740.769 332.973 740.876C330.409 741.009 327.945 740.089 325.391 740.049C323.824 740.036 322.361 739.423 320.844 739.129C319.443 738.703 317.919 738.876 316.591 738.236C315.055 737.582 313.721 736.556 312.197 735.902C309.436 735.009 307.424 732.809 304.924 731.423C303.127 730.463 301.549 729.129 299.644 728.382C299.284 730.569 298.519 732.942 296.477 734.116C293.827 735.876 290.521 735.089 287.625 734.529C285.664 734.129 284.073 732.822 282.184 732.236C280.241 731.662 278.66 730.302 276.675 729.836C275.396 729.556 274.309 728.822 273.165 728.236C270.473 727.209 267.889 725.916 265.308 724.649C262.924 726.009 260.109 726.596 258.047 728.476C256.477 729.756 254.648 730.676 252.948 731.782C251.251 732.876 249.085 733.023 247.549 734.396C246.473 735.303 245.325 736.169 243.975 736.623C242.331 737.183 240.556 737.942 238.805 737.436C236.452 736.929 234.205 735.609 233.153 733.369C230.803 732.236 229.364 734.983 227.336 735.596C224.695 736.436 222.075 737.863 219.223 737.596C216.933 737.183 214.565 737.316 212.348 736.516C208.263 736.316 204.351 734.889 200.695 733.116C199.343 732.409 198.015 731.329 196.383 731.582C192.965 731.302 190.584 734.663 187.175 734.396C183.669 734.316 180.155 734.502 176.653 734.302C174.165 733.716 171.297 733.089 169.715 730.876C168.943 729.876 168.175 728.876 167.345 727.929C163.272 730.236 159.067 732.303 155.069 734.743C153.78 735.489 152.171 735.569 151.023 736.582C149.007 738.302 146.672 739.596 144.371 740.876C142.099 742.569 139.564 743.863 137.217 745.463C135.985 746.329 134.429 746.342 133.021 746.716C129.745 747.742 126.279 747.143 122.915 747.289C120.457 747.543 118.153 746.542 115.764 746.182C113.468 745.422 111.18 744.609 108.929 743.729C106.94 743.503 104.936 743.889 103.02 744.382C99.5294 745.742 95.6507 745.436 92.0414 744.743C88.5788 743.876 85.1188 742.436 82.5721 739.863C81.0868 737.769 79.8387 735.489 78.8294 733.143C76.4254 731.676 73.5574 731.369 70.8041 731.463C69.1787 732.716 67.2134 733.876 65.0787 733.516C62.4974 733.222 60.2401 731.303 59.5841 728.796C58.7307 726.223 60.1094 723.582 61.6028 721.569C63.1428 720.142 64.072 718.049 66.08 717.209C67.9267 716.356 69.9174 715.622 71.9787 715.702C74.6201 715.782 77.2974 715.503 79.896 716.063C81.6174 716.316 83.252 717.063 85.0187 716.943C86.432 716.823 88.0254 717.276 89.2614 716.409C90.9587 715.396 92.9747 714.996 94.5574 713.769C97.6294 711.529 101.415 710.076 103.715 706.916C105.001 705.329 106.944 704.516 108.707 703.569C110.351 700.636 111.368 697.116 114.397 695.236C114.824 692.956 114.485 690.569 114.585 688.249C114.571 684.463 114.62 680.689 114.571 676.916C114.409 673.529 116.064 670.409 117.757 667.583C119.013 665.303 120.66 663.249 122.396 661.329C124.965 659.356 128.321 658.996 131.216 657.689C130.897 656.129 130.344 654.649 129.78 653.183C128.671 650.423 129.193 647.409 129.096 644.516C129.281 642.929 128.025 641.769 127.331 640.476C126.347 639.356 124.992 638.622 123.989 637.502C122.427 636.049 122.1 633.836 120.987 632.102C119.712 629.249 118.419 626.076 119.275 622.902C119.988 620.609 119.665 618.183 120.176 615.849C120.86 610.889 122.269 606.036 124.312 601.476C125.215 599.676 124.949 597.583 125.809 595.796C126.569 594.036 127.507 592.343 128.129 590.516C128.716 588.636 130.099 587.169 130.981 585.436C132.729 582.596 133.912 579.476 135.571 576.596C137.187 572.489 139.513 568.636 140.501 564.302C140.881 562.422 141.572 560.609 141.956 558.729C142.164 555.729 142.963 552.796 143.884 549.942C144.137 548.516 144.399 547.076 145.083 545.783C145.627 544.023 145.781 542.156 146.176 540.356C145.981 538.316 145.927 536.249 146.284 534.223C146.564 532.689 146.341 531.063 146.979 529.596C147.589 528.156 147.667 526.542 148.473 525.209C149.701 523.236 149.291 520.796 149.912 518.636C151.137 514.476 152.328 510.276 152.951 505.983C153.26 504.609 152.347 503.383 152.212 502.063C151.783 500.103 152.593 498.143 152.355 496.196C152.351 494.636 152.992 493.156 152.908 491.596C152.861 489.756 153.433 487.956 153.315 486.116C153.429 481.876 153 477.623 153.709 473.423C153.695 469.583 155.572 466.023 155.339 462.156C155.335 459.223 155.315 456.276 155.335 453.342C155.308 451.076 156.125 448.889 156.141 446.623C156.025 443.449 156.533 440.242 157.439 437.202C158.66 431.872 157.988 426.373 158.227 420.96C158.591 418.601 158.637 416.213 158.533 413.841C158.472 412.013 158.86 410.184 158.548 408.372C158.453 407.389 158.095 406.345 158.613 405.43C157.769 403.517 158.192 401.315 157.397 399.379C156.564 397.613 156.628 395.601 155.841 393.827C154.747 395.639 153.38 397.275 152.171 399.011C151.429 400.247 150.745 401.514 149.951 402.72C148.737 404.194 147.355 405.616 146.721 407.465C146.257 408.565 146.053 409.77 145.465 410.83C143.827 413.364 143.692 416.56 141.991 419.077C141.472 420.697 140.428 422.072 139.879 423.679C138.208 427.887 135.428 431.481 132.691 435.028C131.516 436.541 130.683 438.293 130.179 440.142C129.792 441.649 128.448 442.556 127.557 443.742C126.228 445.342 125.031 447.316 122.929 447.956C120.407 448.823 117.749 449.596 115.063 449.316C114.585 449.316 113.948 449.076 113.66 449.623C112.181 451.676 110.581 454.063 107.989 454.756C104.955 455.329 101.423 455.369 98.9534 453.249C96.6881 452.103 94.372 451.063 92.0267 450.116C88.4747 447.849 84.6347 445.916 81.6707 442.863C79.4467 440.052 76.8934 437.511 74.0947 435.283C72.7547 433.853 70.9534 432.664 70.3934 430.681C69.6667 428.601 68.8614 426.404 69.2947 424.169C69.7054 421.981 69.7134 419.653 70.7534 417.633C72.0401 414.893 72.4467 411.858 73.4534 409.025C74.2667 406.844 74.6854 404.524 75.7334 402.436C76.9627 399.909 77.2854 397.082 78.3214 394.48C79.8854 391.07 80.2534 387.268 81.5361 383.758C81.8934 382.737 82.2814 381.724 82.4814 380.656C82.7534 378.867 83.9441 377.377 84.1401 375.565C84.808 372.808 84.2547 369.951 84.8227 367.179C84.4241 364.423 83.2254 361.849 81.8587 359.463C80.7374 357.929 79.4934 356.463 78.5028 354.849C77.8921 353.409 77.2734 351.956 76.2414 350.769C74.9081 349.236 74.4174 347.116 72.8774 345.742C71.26 344.249 69.948 342.476 68.5987 340.742C66.6027 338.089 65.5627 334.902 63.8987 332.076C62.9134 329.036 60.6667 326.636 58.6814 324.223C58.5774 326.409 58.8307 328.649 58.3401 330.823C58.1241 334.183 58.0747 337.609 57.1067 340.849C56.8614 342.783 56.0467 344.609 56.1281 346.583C55.4521 349.463 54.9187 352.423 53.6121 355.089C53.1361 356.063 53.1361 357.169 52.9054 358.209C52.2334 360.516 53.4054 362.809 53.3854 365.135C53.32 367.777 53.5854 370.443 53.1214 373.061C52.8294 375.165 53.1587 377.285 53.2174 379.397C53.0787 382.514 54.3267 385.495 54.2041 388.612C54.1494 390.985 54.3761 393.389 53.8894 395.732C53.6747 397.321 53.0334 398.803 52.76 400.377C52.0307 403.703 52.8947 407.15 52.1654 410.476C51.8534 412.757 52.264 415.076 51.9267 417.357C51.336 421.259 49.9107 425.014 49.7227 428.976C49.5574 430.497 49.2014 432.033 49.6227 433.555C50.1294 435.573 49.3267 437.556 48.9507 439.52C48.4054 443.129 48.0134 446.756 48.1641 450.409C47.9948 456.809 48.82 463.409 46.6934 469.596C46.232 471.636 45.5414 473.623 45.0001 475.649C45.0534 478.129 43.9054 480.449 44.0934 482.942C44.1894 484.462 43.5827 485.889 43.3107 487.369C43.284 504.596 43.3107 521.836 43.2947 539.062C43.3147 540.289 43.088 541.489 42.88 542.702C42.424 545.809 40.656 548.556 40.296 551.676C39.5734 553.836 39.6747 556.142 39.2094 558.369C38.6027 562.889 37.0054 567.223 36.6987 571.796C36.3027 576.889 35.0694 581.876 34.8401 586.996C34.9041 589.543 34.0441 592.022 34.0028 594.569C33.9494 595.862 33.4267 597.049 33.2574 598.302C32.9427 603.369 31.8907 608.329 31.5761 613.396C31.4987 614.996 30.6801 616.463 30.7534 618.089C30.5507 620.169 30.2614 622.262 30.3667 624.369C30.5041 626.929 29.5907 629.383 29.5667 631.943C29.5401 633.529 28.7494 634.969 28.78 636.569C28.764 637.769 28.4774 638.943 28.1427 640.089C27.0601 646.849 27.8707 653.716 27.4894 660.502C26.9027 663.129 27.3707 665.823 27.0707 668.476C26.9561 669.796 26.0574 670.823 25.6427 672.049C25.3161 675.623 25.0707 679.209 24.9281 682.796C24.4294 686.436 24.0267 690.062 23.7347 693.716C23.2427 698.062 22.5787 702.396 21.9067 706.716C21.9294 715.889 21.9107 725.076 21.9187 734.263C22.1867 737.729 20.2214 740.796 19.2921 744.036C18.5547 746.662 17.0187 749.289 14.4774 750.502C13.06 751.209 11.404 751.289 9.91069 750.782C8.90936 750.369 7.87204 750.756 6.86271 750.902C3.50271 751.142 0.314747 748.356 0.0694136 744.996C-0.049253 742.329 0.0200646 739.649 0.0200646 736.982C-0.046602 735.342 0.757364 733.836 0.918697 732.236C1.13736 730.342 1.80536 728.543 2.07736 726.676C2.64669 723.916 2.74541 721.022 3.83608 718.382C4.88408 715.996 4.98138 713.329 5.93204 710.902C6.24404 708.129 5.99075 705.316 6.07475 702.529C6.17475 699.383 5.72138 696.156 6.63204 693.116C7.21471 691.423 7.74537 689.716 8.3907 688.049C9.18537 686.089 10.4107 684.316 11.0787 682.316C11.6507 679.143 11.0627 675.889 11.4001 672.689C11.7814 670.623 12.5254 668.636 13.5748 666.823C14.8334 664.289 13.5507 661.503 13.7347 658.849C13.8627 654.076 13.4014 649.276 14.116 644.543C14.2387 642.516 13.9507 640.449 14.3454 638.436C14.8214 635.942 14.2774 633.369 14.7334 630.876C15.0841 629.129 14.7414 627.303 15.2707 625.583C15.944 623.596 15.6747 621.436 16.2587 619.423C16.9881 616.929 17.2907 614.342 17.4827 611.769C17.6214 610.049 18.332 608.356 17.9827 606.636C17.5214 603.609 17.8174 600.529 17.7361 597.476C17.7974 595.262 17.5401 593.022 17.9974 590.836C19.5681 585.622 20.7387 580.303 22.444 575.116C22.6747 574.023 22.544 572.889 22.824 571.809C23.036 570.742 23.6881 569.756 23.6001 568.636C23.3854 566.342 23.2387 563.996 23.616 561.716C24.272 559.569 25.228 557.503 25.532 555.263C25.708 553.729 26.5534 552.369 26.6254 550.836C26.7067 549.156 27.0827 547.489 27.0667 545.796C27.1947 543.543 26.7294 541.223 27.432 539.023C28.0814 536.863 28.4774 534.636 28.8534 532.423C29.7094 529.396 30.1747 526.236 30.024 523.089C29.9054 520.903 30.4507 518.729 30.1401 516.556C29.8827 515.263 30.4467 513.929 29.9361 512.676C29.1561 510.329 29.5374 507.863 29.4481 505.449C29.3867 502.503 29.6974 499.529 29.1027 496.623C28.9987 494.729 28.9294 492.782 29.2987 490.902C29.636 488.889 29.3441 486.862 29.4721 484.836C29.5974 482.809 30.8574 481.009 30.696 478.942C31.0494 475.862 31.7214 472.809 32.2707 469.742C32.3014 466.929 32.4547 464.102 31.8907 461.329C32.064 456.262 31.4067 451.143 32.4934 446.156C32.7014 444.756 32.8507 443.329 33.38 442.009C34.34 439.622 33.976 436.88 35.216 434.591C35.8027 433.424 36.4094 432.264 36.844 431.035C36.1214 428.179 36.2414 425.199 36.4481 422.289C36.9054 420.744 36.2907 419.208 36.3374 417.657C36.3481 415.676 36.276 413.695 36.352 411.729C36.44 409.625 37.7574 407.904 38.7254 406.129C38.8027 404.593 37.8841 403.212 37.9454 401.668C38.0187 399.932 37.148 398.365 37.1547 396.645C36.9894 391.984 37.9454 387.384 38.3187 382.753C38.3454 380.594 38.1654 378.405 38.6374 376.279C39.2787 373.683 38.26 371.072 38.3107 368.468C38.3414 365.933 38.2574 363.396 38.3454 360.876C38.4027 358.996 39.5734 357.356 39.5467 355.476C39.536 346.622 39.5161 337.782 39.5507 328.942C39.9427 326.969 39.8041 324.916 40.4028 322.996C40.9561 321.356 40.6067 319.569 41.2827 317.956C41.928 314.943 41.7667 311.809 41.7854 308.756C42.0507 305.663 42.8801 302.649 43.0334 299.542C43.6134 296.209 43.2374 292.809 43.3827 289.436C43.7174 285.929 44.788 282.489 44.5774 278.956C44.4 276.689 45.4187 274.596 45.6294 272.369C46.3587 269.983 47.3267 267.636 47.396 265.076C47.3387 262.169 48.7667 259.449 48.6134 256.556C48.6014 253.743 49.5814 250.863 48.6854 248.103C48.0987 246.409 48.2214 244.596 48.2294 242.836C48.344 238.916 47.9294 234.943 48.6094 231.063C48.6974 225.769 48.5787 220.476 48.6547 215.183C48.7094 213.743 49.5454 212.396 49.3854 210.956C47.764 209.289 46.2707 207.489 44.9654 205.556C43.3214 202.236 44.5201 197.943 47.4227 195.716C46.6121 193.143 44.2467 191.703 42.1041 190.343C40.9721 189.649 40.3881 188.423 39.5121 187.476C38.5334 186.223 37.1934 185.209 36.6214 183.689C36.1067 182.196 35.7841 180.649 35.8334 179.076C34.8161 178.383 33.7494 177.609 33.3494 176.396C32.3667 174.089 33.8334 171.183 36.2174 170.503C37.0667 170.196 37.9841 170.276 38.8707 170.223C38.2641 168.356 36.6987 166.943 36.4867 164.929C35.5761 162.343 37.492 159.529 40.0774 158.983C38.548 156.156 38.6561 152.449 40.9254 150.036C39.7614 148.343 39.0374 146.223 39.732 144.209C40.3 141.783 42.5227 140.183 44.796 139.516C47.0427 138.956 48.6627 137.196 50.6907 136.209C52.6414 135.236 54.5188 133.916 56.7694 133.823C56.7068 129.703 56.684 125.583 56.696 121.463C56.6534 119.316 57.4294 117.276 57.46 115.143C54.7454 114.449 52.2454 113.116 50.08 111.356C48.1907 109.796 47.3841 107.009 48.1374 104.676C48.7787 102.649 48.552 100.463 49.2854 98.4626C47.672 97.2093 46.1934 95.7426 45.2454 93.916C42.6187 92.356 39.3707 90.5827 38.8987 87.2493C38.0307 84.1693 39.0974 80.7426 41.2667 78.4626C42.0427 77.5293 43.0987 76.9159 43.9854 76.1026C44.512 75.3293 44.5467 74.3559 44.7041 73.4626C45.2574 67.5426 48.7787 62.2493 53.2094 58.4626C55.4787 57.3293 57.0534 55.276 59.1694 53.916C60.2974 53.196 61.6308 52.8093 62.6748 51.9559C63.7454 50.7959 64.5867 49.3959 65.9347 48.5026C68.0427 47.2626 70.7041 46.5825 73.0414 47.6092C75.4428 48.4759 76.4174 51.0093 78.004 52.796C80.296 54.316 82.8187 55.4759 85.1374 56.9559C86.2361 57.8226 87.0814 58.9426 88.2094 59.7692C89.8227 60.9559 91.2507 62.436 92.1454 64.2493C92.6947 65.436 93.8774 66.2359 94.2694 67.5292C95.0294 69.8492 94.684 72.3292 94.7574 74.7292C94.88 78.1959 94.4267 81.7292 93.0907 84.9426C92.364 86.6892 92.3801 88.676 91.3587 90.316C90.3481 92.5826 89.0694 94.7159 87.8067 96.8626C86.7161 98.4359 85.9481 100.223 84.6307 101.649C83.3174 104.383 80.9761 106.463 78.4534 108.076C76.9547 108.783 75.7761 109.969 74.5054 110.996C74.2867 112.369 75.1854 113.823 74.6134 115.209C73.9134 117.023 74.3907 118.983 73.9374 120.823C73.0774 123.543 72.3201 126.303 71.4334 129.023C71.2534 132.916 71.656 136.849 71.0267 140.729C70.896 143.103 70.3507 145.649 71.5094 147.889C72.2627 149.583 73.9214 150.529 75.0694 151.916C76.3254 149.796 78.6721 148.089 81.2561 148.503C83.8321 148.583 85.9974 150.516 86.7614 152.916C87.3721 156.276 86.4361 159.663 85.2841 162.809C84.7507 164.316 83.2801 165.703 83.8974 167.409C84.1281 168.849 84.528 170.303 84.496 171.783C84.4774 174.049 84.7081 176.396 83.7974 178.529C82.9267 181.103 80.7227 182.796 78.7294 184.489C78.9707 185.289 79.2521 186.063 79.6081 186.823C80.5494 188.769 80.4881 191.063 81.7041 192.903C84.5587 192.423 88.0254 192.529 89.968 195.009C91.212 196.849 92.932 198.276 94.7574 199.503C96.688 200.676 98.9121 201.356 100.701 202.756C102.048 203.943 103.143 205.449 104.771 206.276C106.837 207.356 108.541 208.996 110.608 210.076C113.772 211.916 115.829 215.009 117.949 217.889C120.776 220.983 123.379 224.343 125.325 228.063C125.856 229.889 126.677 231.636 128.052 232.996C130.249 233.143 132.517 232.743 134.621 233.529C136.12 234.076 137.871 234.236 139.049 235.423C140.632 236.969 142.04 238.716 142.993 240.729C144.191 242.449 145.861 243.823 146.852 245.689C148.123 248.103 150.055 250.062 151.928 252.009C155.216 251.982 158.509 251.102 161.789 251.809C163.371 252.196 164.972 252.516 166.536 252.996C167.768 251.609 168.367 249.783 169.715 248.489C171.185 246.743 173.565 246.356 175.685 245.902C175.601 244.316 175.164 242.742 175.279 241.142C175.379 238.662 174.941 236.076 175.847 233.703C176.768 231.249 177.287 228.609 178.688 226.369C179.871 224.303 180.728 222.076 182.16 220.156C183.4 217.023 185.259 213.823 188.584 212.583C186.533 209.929 187.005 206.436 186.995 203.303C187.071 201.129 188.231 199.196 189.859 197.809C189.179 196.889 188.537 195.929 187.839 195.036C185.228 194.409 182.813 192.436 182.34 189.689C181.757 187.609 182.824 185.583 183.42 183.636C184.249 181.543 184.061 178.889 186 177.383C187.64 176.103 188.153 173.996 189.475 172.449C190.424 171.289 190.673 169.756 191.452 168.516C192.808 166.196 193.049 163.383 194.612 161.183C195.176 159.996 195.211 158.596 195.915 157.449C197.12 155.343 197.369 152.769 199.005 150.916C201.044 148.743 202.435 146.076 203.756 143.436C205.099 141.329 206.593 139.316 208.289 137.476C210.129 135.089 211.788 132.569 213.565 130.129C215.379 126.889 218.136 124.356 220.336 121.383C222.728 118.889 224.256 115.769 226.299 113.023C228.012 110.889 229.636 108.649 230.757 106.143C233.065 102.889 234.867 99.3159 236.859 95.8626C239.301 92.7026 241.62 89.4492 244.197 86.4092C245.119 85.1026 246.236 83.9426 247.568 83.0626C247.895 80.7693 249.008 78.5426 250.84 77.0893C252.456 76.0493 252.364 73.9159 253.289 72.4092C254.18 70.9959 254.511 69.276 255.609 67.9827C257.013 65.916 258.408 63.8226 260.259 62.1293C261.676 59.0359 263.707 56.2493 265.224 53.1959C266.748 51.2226 268.319 49.2625 269.632 47.1425C270.504 45.2092 271.495 43.3293 272.181 41.316C273.204 38.3826 275.023 35.836 276.967 33.4493C278.287 31.6093 279.769 29.7826 280.357 27.5293C280.645 26.3293 281.489 25.4092 282.308 24.5425C282.876 23.9425 282.787 23.0493 283.095 22.3293C283.436 21.116 284.569 20.4493 285.433 19.6359C286.884 18.3293 287.096 16.1026 288.751 14.9692C289.999 14.1959 290.375 12.7027 291.377 11.716C292.595 10.516 292.84 8.75593 293.755 7.36926C295.256 5.31593 296.304 2.96928 297.767 0.889282Z" fill="#100F0D"/>
</svg>
